<?xml version="1.0" encoding="UTF-8" standalone="no"?>
<!DOCTYPE svg PUBLIC "-//W3C//DTD SVG 1.1//EN" "http://www.w3.org/Graphics/SVG/1.1/DTD/svg11.dtd">
<svg width="100%" height="100%" viewBox="0 0 4961 3508" version="1.1" xmlns="http://www.w3.org/2000/svg" xmlns:xlink="http://www.w3.org/1999/xlink" xml:space="preserve" xmlns:serif="http://www.serif.com/" style="fill-rule:evenodd;clip-rule:evenodd;stroke-linejoin:round;stroke-miterlimit:2;">
    <g transform="matrix(1,0,0,1,0,10.4256)">
        <g transform="matrix(11.811,0,0,-11.811,0,4418.89)">
            <path d="M73.824,176.371L73.824,197.761L84.761,197.761L91.911,189.601L99.398,197.761L109.951,197.761L109.951,176.371L98.978,176.371L98.978,184.107L92.076,177.518L84.761,184.188L84.761,176.371L73.824,176.371" style="fill:rgb(255,3,80);"/>
        </g>
        <g transform="matrix(11.811,0,0,-11.811,0,4418.89)">
            <path d="M125.337,197.761L136.955,197.761L150.912,176.371L138.781,176.371L136.873,178.516L124.873,178.516L123.233,176.371L111.208,176.371L125.337,197.761M130.785,188.799L128.524,184.109L133.255,184.109L130.785,188.799" style="fill:rgb(255,3,80);"/>
        </g>
        <g transform="matrix(11.811,0,0,-11.811,0,4418.89)">
            <path d="M151.923,197.761L162.357,197.761L177.339,188.05L177.339,197.761L187.735,197.761L187.735,176.371L176.612,176.371L163.228,185.715L163.228,176.371L151.923,176.371L151.923,197.761" style="fill:rgb(255,3,80);"/>
        </g>
        <g transform="matrix(11.811,0,0,-11.811,0,2888.1)">
            <path d="M66.469,46.764L59.814,46.764L59.814,96.411L130.78,197.761L201.745,96.411L201.745,46.764L195.09,46.764L195.09,94.313L130.78,186.158L66.469,94.313L66.469,46.764" style="fill:rgb(255,3,80);"/>
        </g>
        <g id="_90-Allgemein-Beschriftung" serif:id="90 Allgemein Beschriftung" transform="matrix(4.16667,0,0,4.16667,0,0)">
            <g transform="matrix(0.24,0,0,0.24,15.2966,380.584)">
                <g transform="matrix(333.655,0,0,333.655,540.853,751.01)">
                </g>
                <text x="20.127px" y="751.01px" style="font-family:'Roboto-Regular', 'Roboto';font-size:333.655px;fill:rgb(255,3,80);">N<tspan x="259.311px 351.217px " y="751.01px 751.01px ">IE</tspan></text>
            </g>
            <g transform="matrix(0.24,0,0,0.24,450.255,380.584)">
                <text x="592.441px" y="751.01px" style="font-family:'Roboto-Regular', 'Roboto';font-size:333.655px;fill:rgb(255,3,80);">D<tspan x="818.115px 1014.46px 1259.2px 1348.67px 1539.48px 1762.55px 1986.43px 2202.49px 2408.29px 2519.59px " y="751.01px 751.01px 751.01px 751.01px 751.01px 751.01px 751.01px 751.01px 751.01px 751.01px ">EN JUCKT´S</tspan></text>
                <g transform="matrix(333.655,0,0,333.655,2731.74,1267.46)">
                </g>
                <text x="594.133px" y="1267.46px" style="font-family:'Roboto-Regular', 'Roboto';font-size:333.655px;fill:rgb(99,100,102);">U<tspan x="813.21px 1053.95px 1254.78px 1340.27px 1425.75px 1626.58px 1846.47px 2087.22px 2319.49px 2560.24px 2645.72px " y="1267.46px 1267.46px 1267.46px 1267.46px 1267.46px 1267.46px 1267.46px 1267.46px 1267.46px 1267.46px 1267.46px ">NS  SCHON !</tspan></text>
            </g>
        </g>
    </g>
</svg>
